PathFileType	4	(x/y/z)	S04_M20_T19.trc
DataRate	CameraRate	NumFrames	NumMarkers	Units	OrigDataRate	OrigDataStartFrame	OrigNumFrames
240	240	10	51	mm	240	134	532
Frame#	Time	Sternum			R.Acromium			L.Acromium			Top.Head			R.ASIS			L.ASIS			R.PSIS			L.PSIS			R.Great.Tro			L.Great.Tro			R.Iliac.Crest			L.Iliac.Crest			V.Sacral			R.Thigh.Upper.Post			R.Thigh.Lower.Ant			R.Thigh.Lower.Post			R.Thigh.Upper.Ant			R.Knee.Lat			R.Knee.Med			R.Shank.Upper.Post			R.Shank.Lower.Ant			R.Shank.Lower.Post			R.Shank.Upper.Ant			R.Ankle.Lat			R.Ankle.Med			R.Heel.Upper			R.Heel.Med			R.Heel.Lat			R.Toe.Lat			R.Toe.Med			R.Toe.Tip			L.Thigh.Upper.Post			L.Thigh.Lower.Ant			L.Thigh.Lower.Post			L.Thigh.Upper.Ant			L.Knee.Lat			L.Knee.Med			L.Shank.Upper.Post			L.Shank.Lower.Ant			L.Shank.Lower.Post			L.Shank.Upper.Ant			L.Ankle.Lat			L.Ankle.Med			L.Heel.Upper			L.Heel.Med			L.Heel.Lat			L.Toe.Lat			L.Toe.Med			L.Toe.Tip			Cervical.Spine			Back			
		X1	Y1	Z1	X2	Y2	Z2	X3	Y3	Z3	X4	Y4	Z4	X5	Y5	Z5	X6	Y6	Z6	X7	Y7	Z7	X8	Y8	Z8	X9	Y9	Z9	X10	Y10	Z10	X11	Y11	Z11	X12	Y12	Z12	X13	Y13	Z13	X14	Y14	Z14	X15	Y15	Z15	X16	Y16	Z16	X17	Y17	Z17	X18	Y18	Z18	X19	Y19	Z19	X20	Y20	Z20	X21	Y21	Z21	X22	Y22	Z22	X23	Y23	Z23	X24	Y24	Z24	X25	Y25	Z25	X26	Y26	Z26	X27	Y27	Z27	X28	Y28	Z28	X29	Y29	Z29	X30	Y30	Z30	X31	Y31	Z31	X32	Y32	Z32	X33	Y33	Z33	X34	Y34	Z34	X35	Y35	Z35	X36	Y36	Z36	X37	Y37	Z37	X38	Y38	Z38	X39	Y39	Z39	X40	Y40	Z40	X41	Y41	Z41	X42	Y42	Z42	X43	Y43	Z43	X44	Y44	Z44	X45	Y45	Z45	X46	Y46	Z46	X47	Y47	Z47	X48	Y48	Z48	X49	Y49	Z49	X50	Y50	Z50	X51	Y51	Z51	

134	0.55417	-78.003	1267.2	269.26	-191.81	1494.7	452.88	-226.69	1477.5	103.97	-202.24	1818.8	266.91	-82.043	986.9	401.06	-115.49	998.85	150.05	-306.34	1023.1	332.49	-308.27	1030	252.65	-154.88	910.83	479.42	-248.16	922.9	105.23	-167.69	1074.9	458.42	-219.12	1081.4	118.93	-328.69	984.87	293.75	-57.805	667.41	475.36	42.826	625.32	434.56	-19.884	585.9	458.35	4.6021	727.52	455.6	28.379	536.39	448.37	4.902	520.86	313.08	0.82927	303.33	450.53	84.437	240.73	414.87	16.027	235	438.01	66.123	308.93	435.69	56.192	120.92	424.69	76.563	141.31	335.77	3.6132	72.403	365.04	22.421	47.197	335.21	16.884	41.768	398.64	180.87	79.774	453.51	216.54	95.791	338.56	269.26	131.34	387.65	-302.32	698.02	129.99	-239.63	588.75	136.01	-308.91	609.6	142.96	-237.8	677.68	117.22	-291.03	508.07	151	-285.12	499.31	276.88	-406.6	342.54	163.71	-350.18	247.25	168.77	-411.9	265.68	174.68	-344.88	323.01	157.44	-390.71	102.64	195.62	-390.4	113.64	289.43	-472.37	74.071	241.69	-466.45	47.561	274.39	-468.18	46.897	213.06	-283.94	40.313	174.84	-253.97	43.529	292.18	-196.61	52.875	242.87	-259.58	1538.7	287.82	-339.63	1281.2	275.33
135	0.55833	-73.179	1266.2	269.34	-186.4	1493.7	453.29	-221.9	1476.7	104.41	-196.99	1817.9	267.43	-76.979	985.99	400.88	-111.23	997.95	149.98	-301.47	1022.3	333.02	-303.63	1029.2	253.19	-149.6	910.01	479.53	-244.21	922.34	105.56	-162.09	1074	458.53	-214.74	1080.6	119.23	-323.92	984.08	294.33	-52.944	666.52	475.66	47.707	624.51	434.84	-14.95	585.05	458.68	9.3897	726.69	455.82	33.722	535.91	448.73	10.149	519.94	313.44	10.545	302.4	450.96	95.362	241.51	415.29	27.11	234.41	438.49	75.691	309.33	436.13	69.656	121.12	425.13	89.45	141.93	336.2	17.871	71.55	365.57	37.194	46.713	335.76	31.9	41.18	399.17	195.15	82.517	453.88	230.33	99.2	338.83	282.39	135.84	387.84	-299.57	697.95	130.33	-237.42	588.36	136.12	-306.59	609.53	143.23	-235.19	677.29	117.4	-289.25	507.89	151.12	-283.13	499	277	-405.53	342.87	163.93	-349.51	247.31	168.86	-411.14	266.01	174.88	-343.9	323.05	157.55	-390.59	102.8	195.78	-390.18	113.79	289.57	-472.3	74.201	241.87	-466.39	47.635	274.52	-468.13	47.079	213.2	-283.93	40.315	174.88	-253.9	43.414	292.21	-196.54	52.713	242.88	-254.42	1537.8	288.35	-334.8	1280.5	275.91
136	0.5625	-68.333	1265.2	269.43	-180.98	1492.7	453.71	-217.1	1475.8	104.87	-191.71	1817.1	267.97	-71.9	985.05	400.71	-106.96	997.03	149.91	-296.57	1021.5	333.56	-298.97	1028.5	253.74	-144.31	909.16	479.65	-240.24	921.77	105.9	-156.47	1073.1	458.65	-210.36	1079.8	119.54	-319.13	983.28	294.93	-48.082	665.62	475.97	52.58	623.68	435.12	-10.021	584.18	459.02	14.177	725.83	456.03	39.04	535.41	449.1	15.38	518.98	313.82	20.188	301.52	451.38	106.17	242.34	415.71	38.097	233.9	438.95	85.166	309.77	436.58	82.967	121.43	425.56	102.21	142.65	336.62	32.015	70.85	366.06	51.84	46.391	336.26	46.762	40.753	399.65	209.22	85.346	454.27	243.93	102.69	339.14	295.3	140.4	388.08	-296.79	697.85	130.68	-235.18	587.95	136.23	-304.23	609.46	143.51	-232.54	676.88	117.58	-287.42	507.7	151.26	-281.08	498.67	277.14	-404.42	343.19	164.14	-348.81	247.36	168.97	-410.34	266.34	175.07	-342.88	323.09	157.67	-390.46	102.96	195.96	-389.95	113.93	289.73	-472.22	74.333	242.07	-466.33	47.712	274.66	-468.07	47.266	213.34	-283.91	40.318	174.92	-253.84	43.297	292.25	-196.47	52.548	242.88	-249.23	1537	288.89	-329.95	1279.8	276.51
137	0.56667	-63.463	1264.2	269.53	-175.54	1491.7	454.14	-212.27	1475	105.33	-186.42	1816.1	268.51	-66.804	984.08	400.54	-102.66	996.08	149.85	-291.65	1020.7	334.11	-294.29	1027.7	254.3	-139	908.3	479.78	-236.26	921.18	106.25	-150.84	1072.1	458.78	-205.96	1079	119.86	-314.33	982.47	295.54	-43.216	664.69	476.29	57.452	622.82	435.39	-5.0913	583.29	459.38	18.968	724.96	456.24	44.336	534.88	449.48	20.597	518	314.21	29.755	300.69	451.8	116.86	243.23	416.12	48.983	233.46	439.4	94.546	310.24	437.03	96.117	121.86	425.96	114.84	143.47	337.03	46.033	70.297	366.5	66.348	46.222	336.72	61.461	40.479	400.09	223.05	88.25	454.66	257.33	106.25	339.47	307.99	144.98	388.37	-293.97	697.74	131.03	-232.89	587.53	136.35	-301.82	609.36	143.79	-229.86	676.46	117.77	-285.55	507.5	151.4	-278.98	498.33	277.29	-403.26	343.52	164.36	-348.07	247.42	169.08	-409.51	266.68	175.28	-341.82	323.12	157.79	-390.32	103.13	196.14	-389.71	114.08	289.89	-472.15	74.47	242.27	-466.27	47.796	274.82	-468.01	47.46	213.5	-283.9	40.323	174.97	-253.76	43.178	292.28	-196.4	52.377	242.89	-244.02	1536.1	289.43	-325.07	1279	277.11
138	0.57083	-58.57	1263.1	269.63	-170.07	1490.7	454.58	-207.42	1474.1	105.8	-181.11	1815.2	269.07	-61.692	983.08	400.37	-98.337	995.12	149.8	-286.71	1019.9	334.67	-289.58	1026.9	254.87	-133.68	907.4	479.92	-232.26	920.57	106.61	-145.22	1071.2	458.92	-201.55	1078.2	120.18	-309.5	981.64	296.16	-38.34	663.75	476.62	62.326	621.94	435.66	-0.15611	582.38	459.75	23.767	724.06	456.43	49.616	534.32	449.88	25.805	516.99	314.61	39.24	299.92	452.2	127.41	244.17	416.54	59.76	233.1	439.83	103.83	310.74	437.47	109.1	122.38	426.34	127.33	144.38	337.42	59.913	69.882	366.9	80.705	46.199	337.13	75.984	40.351	400.49	236.65	91.217	455.06	270.53	109.87	339.82	320.45	149.6	388.71	-291.11	697.62	131.4	-230.56	587.1	136.47	-299.37	609.26	144.09	-227.15	676.02	117.96	-283.62	507.28	151.55	-276.82	497.97	277.44	-402.06	343.84	164.58	-347.31	247.47	169.2	-408.65	267.03	175.49	-340.73	323.15	157.92	-390.18	103.31	196.33	-389.46	114.24	290.06	-472.07	74.615	242.49	-466.19	47.887	274.99	-467.95	47.663	213.67	-283.89	40.328	175.03	-253.69	43.057	292.31	-196.32	52.2	242.9	-238.79	1535.2	289.99	-320.17	1278.3	277.71
139	0.575	-53.652	1262	269.74	-164.58	1489.6	455.02	-202.55	1473.3	106.28	-175.77	1814.3	269.64	-56.565	982.06	400.21	-93.996	994.15	149.75	-281.75	1019	335.24	-284.86	1026	255.45	-128.34	906.49	480.06	-228.24	919.95	106.98	-139.61	1070.2	459.07	-197.12	1077.3	120.51	-304.65	980.81	296.79	-33.449	662.8	476.95	67.206	621.04	435.92	4.7891	581.45	460.13	28.576	723.15	456.62	54.883	533.75	450.29	31.005	515.96	315.01	48.64	299.19	452.6	137.84	245.15	416.95	70.422	232.8	440.24	113.01	311.26	437.91	121.9	123	426.7	139.66	145.38	337.79	73.642	69.599	367.25	94.899	46.314	337.5	90.319	40.359	400.85	250	94.235	455.46	283.52	113.55	340.19	332.67	154.23	389.1	-288.21	697.48	131.78	-228.19	586.65	136.59	-296.88	609.14	144.4	-224.39	675.57	118.16	-281.63	507.06	151.71	-274.61	497.6	277.61	-400.82	344.18	164.81	-346.52	247.52	169.34	-407.75	267.37	175.7	-339.59	323.17	158.06	-390.03	103.5	196.53	-389.2	114.4	290.24	-471.99	74.771	242.73	-466.12	47.99	275.17	-467.89	47.878	213.85	-283.88	40.335	175.09	-253.61	42.933	292.35	-196.24	52.018	242.9	-233.54	1534.3	290.55	-315.24	1277.5	278.33
140	0.57917	-48.709	1260.9	269.86	-159.08	1488.5	455.47	-197.65	1472.4	106.77	-170.42	1813.3	270.22	-51.422	981.02	400.06	-89.632	993.15	149.72	-276.76	1018.2	335.82	-280.12	1025.2	256.04	-122.99	905.56	480.22	-224.2	919.31	107.36	-134.02	1069.2	459.22	-192.67	1076.5	120.85	-299.78	979.96	297.44	-28.54	661.84	477.29	72.097	620.12	436.17	9.7493	580.52	460.52	33.401	722.23	456.79	60.142	533.16	450.72	36.2	514.91	315.43	57.951	298.52	453	148.13	246.17	417.35	80.963	232.56	440.63	122.09	311.81	438.35	134.51	123.7	427.03	151.84	146.45	338.14	87.206	69.437	367.55	108.92	46.557	337.83	104.45	40.493	401.16	263.1	97.292	455.85	296.28	117.26	340.58	344.66	158.86	389.53	-285.27	697.32	132.16	-225.77	586.2	136.72	-294.33	609.01	144.72	-221.59	675.11	118.36	-279.6	506.83	151.88	-272.33	497.22	277.78	-399.53	344.51	165.04	-345.69	247.56	169.48	-406.82	267.73	175.93	-338.41	323.2	158.21	-389.87	103.7	196.73	-388.92	114.57	290.42	-471.9	74.942	242.97	-466.03	48.107	275.36	-467.83	48.108	214.04	-283.86	40.342	175.15	-253.52	42.807	292.38	-196.15	51.828	242.91	-228.26	1533.4	291.12	-310.28	1276.7	278.94
141	0.58333	-43.741	1259.8	269.99	-153.55	1487.4	455.93	-192.73	1471.5	107.26	-165.04	1812.3	270.82	-46.264	979.95	399.91	-85.245	992.14	149.69	-271.75	1017.3	336.41	-275.35	1024.3	256.64	-117.62	904.62	480.38	-220.14	918.65	107.75	-128.45	1068.1	459.4	-188.19	1075.6	121.19	-294.89	979.1	298.11	-23.607	660.88	477.63	77.003	619.2	436.41	14.729	579.58	460.91	38.245	721.3	456.96	65.395	532.55	451.15	41.393	513.84	315.85	67.168	297.9	453.39	158.28	247.21	417.76	91.376	232.38	440.99	131.06	312.37	438.78	146.92	124.48	427.33	163.84	147.6	338.48	100.59	69.386	367.82	122.75	46.915	338.12	118.38	40.74	401.44	275.94	100.38	456.24	308.81	121.01	340.99	356.4	163.48	389.99	-282.29	697.15	132.55	-223.31	585.73	136.85	-291.74	608.86	145.05	-218.76	674.63	118.57	-277.52	506.59	152.06	-270.01	496.82	277.97	-398.2	344.85	165.28	-344.83	247.62	169.64	-405.85	268.09	176.15	-337.2	323.22	158.37	-389.7	103.92	196.94	-388.63	114.75	290.61	-471.81	75.132	243.23	-465.94	48.242	275.56	-467.76	48.356	214.25	-283.85	40.349	175.21	-253.44	42.678	292.42	-196.06	51.63	242.92	-222.96	1532.5	291.7	-305.3	1275.9	279.57
142	0.5875	-38.746	1258.7	270.12	-148	1486.3	456.4	-187.78	1470.5	107.76	-159.65	1811.3	271.43	-41.091	978.86	399.77	-80.835	991.12	149.68	-266.72	1016.4	337.01	-270.56	1023.5	257.25	-112.23	903.66	480.56	-216.06	917.99	108.16	-122.91	1067.1	459.58	-183.68	1074.7	121.54	-289.98	978.23	298.78	-18.646	659.92	477.98	81.928	618.27	436.64	19.734	578.64	461.31	43.113	720.37	457.1	70.649	531.94	451.59	46.586	512.76	316.28	76.287	297.32	453.77	168.28	248.28	418.15	101.66	232.25	441.34	139.92	312.94	439.2	159.13	125.31	427.61	175.67	148.79	338.79	113.79	69.435	368.05	136.37	47.376	338.37	132.08	41.089	401.68	288.52	103.47	456.62	321.11	124.76	341.41	367.89	168.07	390.48	-279.26	696.96	132.95	-220.8	585.26	136.99	-289.11	608.7	145.39	-215.88	674.15	118.78	-275.38	506.34	152.25	-267.62	496.42	278.16	-396.83	345.2	165.52	-343.94	247.67	169.8	-404.85	268.45	176.39	-335.94	323.24	158.54	-389.52	104.14	197.15	-388.33	114.94	290.8	-471.71	75.344	243.5	-465.84	48.399	275.78	-467.69	48.626	214.47	-283.84	40.357	175.28	-253.34	42.547	292.45	-195.97	51.425	242.92	-217.63	1531.5	292.28	-300.29	1275	280.2
143	0.59167	-33.725	1257.6	270.27	-142.44	1485.2	456.88	-182.8	1469.6	108.27	-154.23	1810.3	272.05	-35.902	977.75	399.65	-76.401	990.08	149.67	-261.67	1015.6	337.62	-265.75	1022.6	257.87	-106.83	902.69	480.75	-211.96	917.31	108.57	-117.38	1066	459.78	-179.15	1073.8	121.89	-285.05	977.35	299.47	-13.652	658.95	478.33	86.878	617.34	436.85	24.769	577.69	461.71	48.009	719.43	457.24	75.907	531.31	452.03	51.783	511.68	316.71	85.303	296.79	454.15	178.13	249.36	418.54	111.79	232.18	441.68	148.67	313.52	439.62	171.12	126.2	427.87	187.3	150.04	339.09	126.78	69.57	368.24	149.78	47.927	338.58	145.55	41.527	401.89	300.83	106.57	456.99	333.16	128.52	341.83	379.13	172.62	390.99	-276.19	696.77	133.35	-218.25	584.78	137.14	-286.42	608.54	145.73	-212.95	673.65	119	-273.19	506.08	152.44	-265.18	496	278.36	-395.41	345.55	165.77	-343.02	247.72	169.97	-403.81	268.83	176.63	-334.64	323.26	158.71	-389.33	104.38	197.37	-388.01	115.15	291	-471.59	75.583	243.78	-465.73	48.581	276.01	-467.61	48.922	214.69	-283.82	40.366	175.35	-253.25	42.414	292.49	-195.87	51.211	242.93	-212.28	1530.6	292.88	-295.25	1274.2	280.83
